# xmcd
#
# Track frame offsets: 
#        150
#        15377
#        28117
#        44460
#        57405
#        72335
#        87895
#        102455
#        116807
#        129800
#
# Disc length: 1861 seconds
#
# Revision: 2
# Processed by: cddbd v1.4PL0 Copyright (c) Steve Scherf et al.
# Submitted via: ExactAudioCopy v0.90b3
#
DISCID=8307430a
DTITLE=George Jones - By Request
DYEAR=1900
DGENRE=Country
TTITLE0=Shine On (Shine All Your Sweet Love On Me)
TTITLE1=Still Doin' Time
TTITLE2=C.C. Waterback
TTITLE3=Same Ole Me
TTITLE4=I Always Get Lucky With You
TTITLE5=Radio Lover
TTITLE6=Yesterday's Wine (With Merle Haggard)
TTITLE7=Almost Persuaded
TTITLE8=Tennessee Whiskey
TTITLE9=We Didn't See A Thing (With Ray Charles Featuring Chet Atkins)
EXTD=ID3G:   2
EXTT0=
EXTT1=
EXTT2=With Merle Haggard
EXTT3=
EXTT4=
EXTT5=
EXTT6=With Merle Haggard
EXTT7=
EXTT8=
EXTT9=With Ray Charles and Chet Atkins
PLAYORDER=
